<svg width="1000" height="700" xmlns="http://www.w3.org/2000/svg">
 <style type="text/css">.st0{fill:#494368;}
	.st1{fill:#FC60A8;}</style>
 <g>
  <title>background</title>
  <rect x="-1" y="-1" width="1002" height="702" id="canvas_background" fill="none"/>
 </g>
 <g>
  <title>Layer 1</title>
  <path class="st0" d="m258.2,576.2c4,0 7.3,1.4 10.1,4.2c2.8,2.8 4.2,6.2 4.2,10.1l0,49.6l-50.7,0c-4,0 -7.3,-1.4 -10.1,-4.2c-2.8,-2.8 -4.2,-6.2 -4.2,-10.1l0,-23.6l53.1,0l0,-11.7c0,-0.7 -0.2,-1.2 -0.7,-1.7s-1,-0.7 -1.7,-0.7l-50.7,0l0,-11.9l50.7,0l0,0zm2.4,52l0,-14.1l-41.2,0l0,11.7c0,0.7 0.2,1.2 0.7,1.7s1,0.7 1.7,0.7l38.8,0l0,0zm114.7,-52l12.7,0l-24,63.9l-9.7,0l-21.5,-47.5l-20.3,47.5l-0.2,-0.1l0.1,0.1l-9.6,0l-25.1,-63.9l12.6,0l17.3,42.4l18.4,-42.4l13.6,0l19.5,42.4l16.2,-42.4zm67.2,0c4,0 7.3,1.4 10.1,4.2c2.8,2.8 4.2,6.2 4.2,10.1l0,23.6l-53.1,0l0,11.7c0,0.7 0.2,1.2 0.7,1.7s1,0.7 1.7,0.7l50.7,0l0,11.9l-50.7,0c-4,0 -7.3,-1.4 -10.1,-4.2c-2.8,-2.8 -4.2,-6.2 -4.2,-10.1l0,-35.3c0,-4 1.4,-7.3 4.2,-10.1c2.8,-2.8 6.2,-4.2 10.1,-4.2l36.4,0l0,0zm-38.8,26l41.2,0l0,-11.7c0,-0.7 -0.2,-1.2 -0.7,-1.7s-1,-0.7 -1.7,-0.7l-36.4,0c-0.7,0 -1.2,0.2 -1.7,0.7s-0.7,1 -0.7,1.7l0,11.7l0,0zm129,-11.6l0,2.4l-11.9,0l0,-2.4c0,-0.7 -0.2,-1.2 -0.7,-1.7s-1,-0.7 -1.7,-0.7l-36.4,0c-0.7,0 -1.2,0.2 -1.7,0.7s-0.7,1 -0.7,1.7l0,9.3c0,0.7 0.2,1.2 0.7,1.7s1,0.7 1.7,0.7l36.4,0c4,0 7.3,1.4 10.1,4.2s4.2,6.2 4.2,10.1l0,9.3c0,4 -1.4,7.3 -4.2,10.1c-2.8,2.8 -6.2,4.2 -10.1,4.2l-36.4,0c-4,0 -7.3,-1.4 -10.1,-4.2s-4.2,-6.2 -4.2,-10.1l0,-2.4l11.9,0l0,2.4c0,0.7 0.2,1.2 0.7,1.7s1,0.7 1.7,0.7l36.4,0c0.7,0 1.2,-0.2 1.7,-0.7s0.7,-1 0.7,-1.7l0,-9.3c0,-0.7 -0.2,-1.2 -0.7,-1.7s-1,-0.7 -1.7,-0.7l-36.4,0c-4,0 -7.3,-1.4 -10.1,-4.2c-2.8,-2.8 -4.2,-6.2 -4.2,-10.1l0,-9.3c0,-4 1.4,-7.3 4.2,-10.1c2.8,-2.8 6.2,-4.2 10.1,-4.2l36.4,0c4,0 7.3,1.4 10.1,4.2c2.8,2.7 4.2,6.1 4.2,10.1zm25.2,-14.4l36.4,0c4,0 7.3,1.4 10.1,4.2c2.8,2.8 4.2,6.2 4.2,10.1l0,35.3c0,4 -1.4,7.3 -4.2,10.1c-2.8,2.8 -6.2,4.2 -10.1,4.2l-36.4,0c-4,0 -7.3,-1.4 -10.1,-4.2c-2.8,-2.8 -4.2,-6.2 -4.2,-10.1l0,-35.3c0,-4 1.4,-7.3 4.2,-10.1c2.8,-2.8 6.2,-4.2 10.1,-4.2l0,0zm36.4,11.9l-36.4,0c-0.7,0 -1.2,0.2 -1.7,0.7s-0.7,1 -0.7,1.7l0,35.3c0,0.7 0.2,1.2 0.7,1.7s1,0.7 1.7,0.7l36.4,0c0.7,0 1.2,-0.2 1.7,-0.7s0.7,-1 0.7,-1.7l0,-35.3c0,-0.7 -0.2,-1.2 -0.7,-1.7c-0.5,-0.4 -1,-0.7 -1.7,-0.7zm107.5,-11.9c4,0 7.3,1.4 10.1,4.2c2.8,2.8 4.2,6.2 4.2,10.1l0,49.6l-11.8,0l0,-49.6c0,-0.7 -0.2,-1.2 -0.7,-1.7s-1.1,-0.7 -1.8,-0.7l-25.2,0c-0.7,0 -1.2,0.2 -1.7,0.7s-0.7,1 -0.7,1.7l0,49.6l-11.9,0l0,-49.6c0,-0.7 -0.2,-1.2 -0.7,-1.7s-1,-0.7 -1.7,-0.7l-25.3,0c-0.7,0 -1.2,0.2 -1.7,0.7s-0.7,1 -0.7,1.7l0,49.6l-11.9,0l0,-63.9l81.5,0zm76.5,0c4,0 7.3,1.4 10.1,4.2c2.8,2.8 4.2,6.2 4.2,10.1l0,23.6l-53.1,0l0,11.7c0,0.7 0.2,1.2 0.7,1.7s1,0.7 1.7,0.7l50.7,0l0,11.9l-50.7,0c-4,0 -7.3,-1.4 -10.1,-4.2c-2.8,-2.8 -4.2,-6.2 -4.2,-10.1l0,-35.3c0,-4 1.4,-7.3 4.2,-10.1c2.8,-2.8 6.2,-4.2 10.1,-4.2l36.4,0l0,0zm-38.8,26l41.2,0l0,-11.7c0,-0.7 -0.2,-1.2 -0.7,-1.7s-1,-0.7 -1.7,-0.7l-36.4,0c-0.7,0 -1.2,0.2 -1.7,0.7s-0.7,1 -0.7,1.7l0,11.7l0,0z" id="svg_1"/>
  <path class="st1" d="m793,381l-150,-137.5l-21.1,23l125,114.5l-492.7,0l125,-114.6l-21.1,-23l-150,137.6l-0.1,0l0,90.6c0,41 39.5,74.4 88,74.4l92,0c48.5,0 88,-33.4 88,-74.4l0,-59.6l48,0l0,59.6c0,41 39.5,74.4 88,74.4l93,0c48.5,0 88,-33.4 88,-74.4l0,-90.6z" id="svg_2"/>
  <!-- Generator: Sketch 52.3 (67297) - http://www.bohemiancoding.com/sketch -->
  <desc>Created with Sketch.</desc>
  <defs>
   <radialGradient cx="83.4606664%" cy="103.791738%" fx="83.4606664%" fy="103.791738%" r="135.946111%" gradientTransform="translate(0.834607,1.037917),scale(1.000000,0.876812),rotate(-130.316494),translate(-0.834607,-1.037917)" id="svg_15">
    <stop stop-color="#00ACE9" offset="0%"/>
    <stop stop-color="#00ACE9" offset="22.1812216%"/>
    <stop stop-color="#0075BD" offset="41.9817554%"/>
    <stop stop-color="#6D4297" offset="54.4640863%"/>
    <stop stop-color="#C71F40" offset="65.8396616%"/>
    <stop stop-color="#EA6004" offset="81.2996131%"/>
    <stop stop-color="#EB6101" offset="100%"/>
   </radialGradient>
  </defs>
  <g stroke="null" id="svg_18">
   <g stroke="null" id="svg_13" fill="none" fill-rule="evenodd" transform="matrix(3.2063191712602435,0,0,3.0495705383144083,-45.19905855146152,-4.015971899317101) ">
    <g stroke="null" id="svg_14" fill="url(#svg_15)">
     <path stroke="null" d="m164.318641,9.660635l-48,29c-3.24827,1.82584 -6,6.62934 -6,11l0,56c0,4.37141 2.75173,9.17391 6,11l48,29c3.74727,1.49457 9.25273,1.49457 13,0l48,-29c3.24627,-1.82609 6,-6.62859 6,-11l0,-56c0,-4.37066 -2.75373,-9.17416 -6,-11l-48,-29c-2.0656,-0.50518 -4.2828,-1 -7,-1c-1.7182,0 -3.9344,0.49482 -6,1zm-26,38l65,0l0,-7l-65,0l0,7zm41,50l0,-34l23,0l0,34c0,12.37712 -10.4314,22.90811 -23,23c-13.21151,-0.04595 -23.78835,-10.64686 -24,-24l0,-27l-11,0l0,28c-0.35643,3.75794 1.17276,7.75039 4,11c0.33775,0.57203 0.96536,1.22429 2,2c0.31623,0.42892 1.03849,0.98129 2,1c0.94924,1.22287 2.19152,1.84017 4,2c1.3834,2.88869 3.67371,5.14412 6,7c-0.0071,-0.01099 -0.29301,0 -1,0c-12.49489,0 -23,-10.53299 -23,-23l0,-34l23,0l0,34c-0.1926,6.00638 3.32604,11.97258 9,15c5.67395,-3.02742 9.19259,-8.99362 9,-15zm6,-28l0,28c0.23463,6.91788 -2.75987,13.38471 -8,18c0.6746,-0.03419 1.27086,0 2,0c0.47151,0 1.09015,-0.03118 2,0c2.74705,-0.39927 5.57366,-1.45428 8,-3c1.43813,-1.03699 2.7385,-2.20665 4,-4c0.96174,-0.86681 1.88054,-2.35629 3,-4c0.49125,-2.11168 1,-4.47011 1,-7l0,-28l-12,0z" id="svg_16"/>
    </g>
   </g>
  </g>
  <path class="st1" d="m746.9,381l-492.7,0m-46.1,0l-0.1,0l0,90.6c0,41 39.5,74.4 88,74.4l92,0c48.5,0 88,-33.4 88,-74.4l0,-59.6l48,0l0,59.6c0,41 39.5,74.4 88,74.4l93,0c48.5,0 88,-33.4 88,-74.4l0,-90.6" id="svg_3"/>
 </g>
</svg>