<svg width="1000" height="700" xmlns="http://www.w3.org/2000/svg">
 <style type="text/css">.st0{fill:#494368;}
	.st1{fill:#FC60A8;}</style>

 <g>
  <title>background</title>
  <rect fill="none" id="canvas_background" height="402" width="582" y="-1" x="-1"/>
 </g>
 <g>
  <title>Layer 1</title>
  <path id="svg_1" d="m258.2,576.2c4,0 7.3,1.4 10.1,4.2c2.8,2.8 4.2,6.2 4.2,10.1l0,49.6l-50.7,0c-4,0 -7.3,-1.4 -10.1,-4.2c-2.8,-2.8 -4.2,-6.2 -4.2,-10.1l0,-23.6l53.1,0l0,-11.7c0,-0.7 -0.2,-1.2 -0.7,-1.7s-1,-0.7 -1.7,-0.7l-50.7,0l0,-11.9l50.7,0l0,0zm2.4,52l0,-14.1l-41.2,0l0,11.7c0,0.7 0.2,1.2 0.7,1.7s1,0.7 1.7,0.7l38.8,0l0,0zm114.7,-52l12.7,0l-24,63.9l-9.7,0l-21.5,-47.5l-20.3,47.5l-0.2,-0.1l0.1,0.1l-9.6,0l-25.1,-63.9l12.6,0l17.3,42.4l18.4,-42.4l13.6,0l19.5,42.4l16.2,-42.4zm67.2,0c4,0 7.3,1.4 10.1,4.2c2.8,2.8 4.2,6.2 4.2,10.1l0,23.6l-53.1,0l0,11.7c0,0.7 0.2,1.2 0.7,1.7s1,0.7 1.7,0.7l50.7,0l0,11.9l-50.7,0c-4,0 -7.3,-1.4 -10.1,-4.2c-2.8,-2.8 -4.2,-6.2 -4.2,-10.1l0,-35.3c0,-4 1.4,-7.3 4.2,-10.1c2.8,-2.8 6.2,-4.2 10.1,-4.2l36.4,0l0,0zm-38.8,26l41.2,0l0,-11.7c0,-0.7 -0.2,-1.2 -0.7,-1.7s-1,-0.7 -1.7,-0.7l-36.4,0c-0.7,0 -1.2,0.2 -1.7,0.7s-0.7,1 -0.7,1.7l0,11.7l0,0zm129,-11.6l0,2.4l-11.9,0l0,-2.4c0,-0.7 -0.2,-1.2 -0.7,-1.7s-1,-0.7 -1.7,-0.7l-36.4,0c-0.7,0 -1.2,0.2 -1.7,0.7s-0.7,1 -0.7,1.7l0,9.3c0,0.7 0.2,1.2 0.7,1.7s1,0.7 1.7,0.7l36.4,0c4,0 7.3,1.4 10.1,4.2s4.2,6.2 4.2,10.1l0,9.3c0,4 -1.4,7.3 -4.2,10.1c-2.8,2.8 -6.2,4.2 -10.1,4.2l-36.4,0c-4,0 -7.3,-1.4 -10.1,-4.2s-4.2,-6.2 -4.2,-10.1l0,-2.4l11.9,0l0,2.4c0,0.7 0.2,1.2 0.7,1.7s1,0.7 1.7,0.7l36.4,0c0.7,0 1.2,-0.2 1.7,-0.7s0.7,-1 0.7,-1.7l0,-9.3c0,-0.7 -0.2,-1.2 -0.7,-1.7s-1,-0.7 -1.7,-0.7l-36.4,0c-4,0 -7.3,-1.4 -10.1,-4.2c-2.8,-2.8 -4.2,-6.2 -4.2,-10.1l0,-9.3c0,-4 1.4,-7.3 4.2,-10.1c2.8,-2.8 6.2,-4.2 10.1,-4.2l36.4,0c4,0 7.3,1.4 10.1,4.2c2.8,2.7 4.2,6.1 4.2,10.1zm25.2,-14.4l36.4,0c4,0 7.3,1.4 10.1,4.2c2.8,2.8 4.2,6.2 4.2,10.1l0,35.3c0,4 -1.4,7.3 -4.2,10.1c-2.8,2.8 -6.2,4.2 -10.1,4.2l-36.4,0c-4,0 -7.3,-1.4 -10.1,-4.2c-2.8,-2.8 -4.2,-6.2 -4.2,-10.1l0,-35.3c0,-4 1.4,-7.3 4.2,-10.1c2.8,-2.8 6.2,-4.2 10.1,-4.2l0,0zm36.4,11.9l-36.4,0c-0.7,0 -1.2,0.2 -1.7,0.7s-0.7,1 -0.7,1.7l0,35.3c0,0.7 0.2,1.2 0.7,1.7s1,0.7 1.7,0.7l36.4,0c0.7,0 1.2,-0.2 1.7,-0.7s0.7,-1 0.7,-1.7l0,-35.3c0,-0.7 -0.2,-1.2 -0.7,-1.7c-0.5,-0.4 -1,-0.7 -1.7,-0.7zm107.5,-11.9c4,0 7.3,1.4 10.1,4.2c2.8,2.8 4.2,6.2 4.2,10.1l0,49.6l-11.8,0l0,-49.6c0,-0.7 -0.2,-1.2 -0.7,-1.7s-1.1,-0.7 -1.8,-0.7l-25.2,0c-0.7,0 -1.2,0.2 -1.7,0.7s-0.7,1 -0.7,1.7l0,49.6l-11.9,0l0,-49.6c0,-0.7 -0.2,-1.2 -0.7,-1.7s-1,-0.7 -1.7,-0.7l-25.3,0c-0.7,0 -1.2,0.2 -1.7,0.7s-0.7,1 -0.7,1.7l0,49.6l-11.9,0l0,-63.9l81.5,0zm76.5,0c4,0 7.3,1.4 10.1,4.2c2.8,2.8 4.2,6.2 4.2,10.1l0,23.6l-53.1,0l0,11.7c0,0.7 0.2,1.2 0.7,1.7s1,0.7 1.7,0.7l50.7,0l0,11.9l-50.7,0c-4,0 -7.3,-1.4 -10.1,-4.2c-2.8,-2.8 -4.2,-6.2 -4.2,-10.1l0,-35.3c0,-4 1.4,-7.3 4.2,-10.1c2.8,-2.8 6.2,-4.2 10.1,-4.2l36.4,0l0,0zm-38.8,26l41.2,0l0,-11.7c0,-0.7 -0.2,-1.2 -0.7,-1.7s-1,-0.7 -1.7,-0.7l-36.4,0c-0.7,0 -1.2,0.2 -1.7,0.7s-0.7,1 -0.7,1.7l0,11.7l0,0z" class="st0"/>
  <path id="svg_2" d="m793,381l-150,-137.5l-21.1,23l125,114.5l-492.7,0l125,-114.6l-21.1,-23l-150,137.6l-0.1,0l0,90.6c0,41 39.5,74.4 88,74.4l92,0c48.5,0 88,-33.4 88,-74.4l0,-59.6l48,0l0,59.6c0,41 39.5,74.4 88,74.4l93,0c48.5,0 88,-33.4 88,-74.4l0,-90.6z" class="st1"/>
  <!-- Generator: Sketch 52.3 (67297) - http://www.bohemiancoding.com/sketch -->
  <desc transform="matrix(2.817889507969312,0,0,2.817889507969312,0,0) ">Created with Sketch.</desc>
  <defs>
   <radialGradient id="svg_15" gradientTransform="translate(0.834607,1.037917),scale(1.000000,0.876812),rotate(-130.316494),translate(-0.834607,-1.037917)" r="135.946111%" fy="103.791738%" fx="83.4606664%" cy="103.791738%" cx="83.4606664%">
    <stop offset="0%" stop-color="#00ACE9"/>
    <stop offset="22.1812216%" stop-color="#00ACE9"/>
    <stop offset="41.9817554%" stop-color="#0075BD"/>
    <stop offset="54.4640863%" stop-color="#6D4297"/>
    <stop offset="65.8396616%" stop-color="#C71F40"/>
    <stop offset="81.2996131%" stop-color="#EA6004"/>
    <stop offset="100%" stop-color="#EB6101"/>
   </radialGradient>
  </defs>
  <g id="svg_18">
   <g transform="matrix(2.817889507969312,0,0,2.817889507969312,0,0) " fill-rule="evenodd" fill="none" id="svg_13">
    <g fill="url(#svg_15)" id="svg_14">
     <path id="svg_16" d="m171.647518,20.303541l-48,29c-3.248271,1.825837 -6,6.629342 -6,11l0,56c0,4.371406 2.751729,9.173914 6,11l48,29c3.74727,1.494566 9.25273,1.494566 13,0l48,-29c3.246269,-1.826086 6,-6.628594 6,-11l0,-56c0,-4.370658 -2.753731,-9.174163 -6,-11l-48,-29c-2.065602,-0.505184 -4.282801,-1 -7,-1c-1.7182,0 -3.934398,0.494816 -6,1zm-26,38l65,0l0,-7l-65,0l0,7zm41,50l0,-34l23,0l0,34c0,12.377114 -10.431393,22.908105 -23,23c-13.211509,-0.045948 -23.78835,-10.646859 -24,-24l0,-27l-11,0l0,28c-0.356428,3.757943 1.172766,7.75039 4,11c0.337749,0.572032 0.965366,1.224288 2,2c0.316237,0.428914 1.038494,0.981285 2,1c0.94924,1.222869 2.191523,1.840165 4,2c1.383404,2.888688 3.673708,5.144116 6,7c-0.007098,-0.010987 -0.293012,0 -1,0c-12.494887,0 -23,-10.532989 -23,-23l0,-34l23,0l0,34c-0.192597,6.006379 3.326043,11.972575 9,15c5.673957,-3.027425 9.192597,-8.993621 9,-15zm6,-28l0,28c0.234636,6.91788 -2.75987,13.384713 -8,18c0.674603,-0.034195 1.270859,0 2,0c0.47151,0 1.090151,-0.031178 2,0c2.747049,-0.399274 5.573667,-1.454283 8,-3c1.438136,-1.036993 2.738502,-2.206655 4,-4c0.961742,-0.866807 1.880545,-2.35629 3,-4c0.491249,-2.11168 1,-4.470112 1,-7l0,-28l-12,0z"/>
    </g>
   </g>
  </g>
  <path id="svg_3" d="m746.9,381l-492.7,0m-46.1,0l-0.1,0l0,90.6c0,41 39.5,74.4 88,74.4l92,0c48.5,0 88,-33.4 88,-74.4l0,-59.6l48,0l0,59.6c0,41 39.5,74.4 88,74.4l93,0c48.5,0 88,-33.4 88,-74.4l0,-90.6" class="st1"/>
 </g>
</svg>