<?xml version="1.0" encoding="utf-8"?>
<!-- Generator: Adobe Illustrator 22.0.0, SVG Export Plug-In . SVG Version: 6.00 Build 0)  -->
<svg version="1.1" id="图层_1" xmlns="http://www.w3.org/2000/svg" xmlns:xlink="http://www.w3.org/1999/xlink" x="0px" y="0px"
	 viewBox="0 0 1000 700" style="enable-background:new 0 0 1000 700;" xml:space="preserve">
<style type="text/css">
	.st0{fill:#494368;}
	.st1{fill:#FC60A8;}
	.st2{fill:url(#SVGID_1_);}
	.st3{fill:url(#SVGID_2_);}
</style>
<path class="st0" d="M258.2,576.2c4,0,7.3,1.4,10.1,4.2c2.8,2.8,4.2,6.2,4.2,10.1v49.6h-50.7c-4,0-7.3-1.4-10.1-4.2
	c-2.8-2.8-4.2-6.2-4.2-10.1v-23.6h53.1v-11.7c0-0.7-0.2-1.2-0.7-1.7s-1-0.7-1.7-0.7h-50.7v-11.9L258.2,576.2L258.2,576.2z
	 M260.6,628.2v-14.1h-41.2v11.7c0,0.7,0.2,1.2,0.7,1.7s1,0.7,1.7,0.7H260.6L260.6,628.2z M375.3,576.2H388l-24,63.9h-9.7l-21.5-47.5
	l-20.3,47.5l-0.2-0.1l0.1,0.1h-9.6l-25.1-63.9h12.6l17.3,42.4l18.4-42.4h13.6l19.5,42.4L375.3,576.2z M442.5,576.2
	c4,0,7.3,1.4,10.1,4.2c2.8,2.8,4.2,6.2,4.2,10.1v23.6h-53.1v11.7c0,0.7,0.2,1.2,0.7,1.7s1,0.7,1.7,0.7h50.7v11.9h-50.7
	c-4,0-7.3-1.4-10.1-4.2c-2.8-2.8-4.2-6.2-4.2-10.1v-35.3c0-4,1.4-7.3,4.2-10.1c2.8-2.8,6.2-4.2,10.1-4.2L442.5,576.2L442.5,576.2z
	 M403.7,602.2h41.2v-11.7c0-0.7-0.2-1.2-0.7-1.7s-1-0.7-1.7-0.7h-36.4c-0.7,0-1.2,0.2-1.7,0.7s-0.7,1-0.7,1.7V602.2L403.7,602.2z
	 M532.7,590.6v2.4h-11.9v-2.4c0-0.7-0.2-1.2-0.7-1.7s-1-0.7-1.7-0.7H482c-0.7,0-1.2,0.2-1.7,0.7s-0.7,1-0.7,1.7v9.3
	c0,0.7,0.2,1.2,0.7,1.7s1,0.7,1.7,0.7h36.4c4,0,7.3,1.4,10.1,4.2s4.2,6.2,4.2,10.1v9.3c0,4-1.4,7.3-4.2,10.1
	c-2.8,2.8-6.2,4.2-10.1,4.2H482c-4,0-7.3-1.4-10.1-4.2s-4.2-6.2-4.2-10.1v-2.4h11.9v2.4c0,0.7,0.2,1.2,0.7,1.7s1,0.7,1.7,0.7h36.4
	c0.7,0,1.2-0.2,1.7-0.7s0.7-1,0.7-1.7v-9.3c0-0.7-0.2-1.2-0.7-1.7s-1-0.7-1.7-0.7H482c-4,0-7.3-1.4-10.1-4.2
	c-2.8-2.8-4.2-6.2-4.2-10.1v-9.3c0-4,1.4-7.3,4.2-10.1c2.8-2.8,6.2-4.2,10.1-4.2h36.4c4,0,7.3,1.4,10.1,4.2
	C531.3,583.2,532.7,586.6,532.7,590.6z M557.9,576.2h36.4c4,0,7.3,1.4,10.1,4.2c2.8,2.8,4.2,6.2,4.2,10.1v35.3c0,4-1.4,7.3-4.2,10.1
	c-2.8,2.8-6.2,4.2-10.1,4.2h-36.4c-4,0-7.3-1.4-10.1-4.2c-2.8-2.8-4.2-6.2-4.2-10.1v-35.3c0-4,1.4-7.3,4.2-10.1
	C550.6,577.6,554,576.2,557.9,576.2L557.9,576.2z M594.3,588.1h-36.4c-0.7,0-1.2,0.2-1.7,0.7s-0.7,1-0.7,1.7v35.3
	c0,0.7,0.2,1.2,0.7,1.7s1,0.7,1.7,0.7h36.4c0.7,0,1.2-0.2,1.7-0.7s0.7-1,0.7-1.7v-35.3c0-0.7-0.2-1.2-0.7-1.7
	C595.5,588.4,595,588.1,594.3,588.1z M701.8,576.2c4,0,7.3,1.4,10.1,4.2c2.8,2.8,4.2,6.2,4.2,10.1v49.6h-11.8v-49.6
	c0-0.7-0.2-1.2-0.7-1.7s-1.1-0.7-1.8-0.7h-25.2c-0.7,0-1.2,0.2-1.7,0.7s-0.7,1-0.7,1.7v49.6h-11.9v-49.6c0-0.7-0.2-1.2-0.7-1.7
	s-1-0.7-1.7-0.7h-25.3c-0.7,0-1.2,0.2-1.7,0.7s-0.7,1-0.7,1.7v49.6h-11.9v-63.9H701.8z M778.3,576.2c4,0,7.3,1.4,10.1,4.2
	c2.8,2.8,4.2,6.2,4.2,10.1v23.6h-53.1v11.7c0,0.7,0.2,1.2,0.7,1.7s1,0.7,1.7,0.7h50.7v11.9h-50.7c-4,0-7.3-1.4-10.1-4.2
	c-2.8-2.8-4.2-6.2-4.2-10.1v-35.3c0-4,1.4-7.3,4.2-10.1c2.8-2.8,6.2-4.2,10.1-4.2L778.3,576.2L778.3,576.2z M739.5,602.2h41.2v-11.7
	c0-0.7-0.2-1.2-0.7-1.7s-1-0.7-1.7-0.7h-36.4c-0.7,0-1.2,0.2-1.7,0.7s-0.7,1-0.7,1.7L739.5,602.2L739.5,602.2z"/>
<path class="st1" d="M793,381L643,243.5l-21.1,23l125,114.5H254.2l125-114.6l-21.1-23L208.1,381H208v90.6c0,41,39.5,74.4,88,74.4h92
	c48.5,0,88-33.4,88-74.4V412h48v59.6c0,41,39.5,74.4,88,74.4h93c48.5,0,88-33.4,88-74.4V381z"/>
<radialGradient id="SVGID_1_" cx="407.2521" cy="351.2821" r="154.5344" gradientTransform="matrix(3.3017 0 0 3.1349 -1098.1614 -809.4453)" gradientUnits="userSpaceOnUse">
	<stop  offset="0" style="stop-color:#00ACE9"/>
	<stop  offset="0.2218" style="stop-color:#00ACE9"/>
	<stop  offset="0.4198" style="stop-color:#0075BD"/>
	<stop  offset="0.5446" style="stop-color:#6D4297"/>
	<stop  offset="0.6584" style="stop-color:#C71F40"/>
	<stop  offset="0.813" style="stop-color:#EA6004"/>
	<stop  offset="1" style="stop-color:#EB6101"/>
</radialGradient>
<path class="st2" d="M680.5,114L522,23.1c-6.8-1.6-14.1-3.1-23.1-3.1c-5.7,0-13,1.6-19.8,3.1L320.6,114
	c-10.7,5.7-19.8,20.8-19.8,34.5v175.6c0,13.7,9.1,28.8,19.8,34.5l158.5,90.9c12.4,4.7,30.5,4.7,42.9,0l158.5-90.9
	c10.7-5.7,19.8-20.8,19.8-34.5V148.5C700.3,134.8,691.2,119.8,680.5,114z M604.6,299c0,38.8-34.4,71.8-75.9,72.1
	c-43.6-0.1-78.5-33.4-79.2-75.2v-84.6h-36.3V299c-1.2,11.8,3.9,24.3,13.2,34.5c1.1,1.8,3.2,3.8,6.6,6.3c1,1.3,3.4,3.1,6.6,3.1
	c3.1,3.8,7.2,5.8,13.2,6.3c4.6,9.1,12.1,16.1,19.8,21.9c0,0-1,0-3.3,0c-41.3,0-75.9-33-75.9-72.1V192.4h75.9V299
	c-0.6,18.8,11,37.5,29.7,47c18.7-9.5,30.4-28.2,29.7-47V192.4h75.9V299z M607.9,142.3H393.2v-21.9h214.6V142.3z"/>
<path class="st1" d="M746.9,381H254.2 M208.1,381H208v90.6c0,41,39.5,74.4,88,74.4h92c48.5,0,88-33.4,88-74.4V412h48v59.6
	c0,41,39.5,74.4,88,74.4h93c48.5,0,88-33.4,88-74.4V381"/>
<radialGradient id="SVGID_2_" cx="192.5345" cy="746.1303" r="0.3792" gradientTransform="matrix(-274.9984 -281.0385 -324.0778 238.4771 295338.0625 -123481.3438)" gradientUnits="userSpaceOnUse">
	<stop  offset="0" style="stop-color:#00ACE9"/>
	<stop  offset="0.2218" style="stop-color:#00ACE9"/>
	<stop  offset="0.4198" style="stop-color:#0075BD"/>
	<stop  offset="0.5446" style="stop-color:#6D4297"/>
	<stop  offset="0.6584" style="stop-color:#C71F40"/>
	<stop  offset="0.813" style="stop-color:#EA6004"/>
	<stop  offset="1" style="stop-color:#EB6101"/>
</radialGradient>
<path class="st3" d="M546.8,213v85.2c0.8,21.1-9.7,40.7-28.1,54.8c2.4-0.1,4.5,0,7,0c1.7,0,3.8-0.1,7,0c9.6-1.2,19.6-4.4,28.1-9.1
	c5.1-3.2,9.6-6.7,14.1-12.2c3.4-2.6,6.6-7.2,10.5-12.2c1.7-6.4,3.5-13.6,3.5-21.3V213H546.8z"/>
</svg>
