<?xml version="1.0" encoding="utf-8"?>
<!-- Generator: Adobe Illustrator 22.0.0, SVG Export Plug-In . SVG Version: 6.00 Build 0)  -->
<svg version="1.1" id="图层_1" xmlns="http://www.w3.org/2000/svg" xmlns:xlink="http://www.w3.org/1999/xlink" x="0px" y="0px"
	 viewBox="0 0 1000 700" style="enable-background:new 0 0 1000 700;" xml:space="preserve">
<style type="text/css">
	.st0{fill:#494368;}
	.st1{fill:#FC60A8;}
	.st2{fill:url(#SVGID_1_);}
	.st3{fill:url(#SVGID_2_);}
</style>
<path class="st0" d="M258.2,576.2c4,0,7.3,1.4,10.1,4.2c2.8,2.8,4.2,6.2,4.2,10.1v49.6h-50.7c-4,0-7.3-1.4-10.1-4.2
	c-2.8-2.8-4.2-6.2-4.2-10.1v-23.6h53.1v-11.7c0-0.7-0.2-1.2-0.7-1.7s-1-0.7-1.7-0.7h-50.7v-11.9L258.2,576.2L258.2,576.2z
	 M260.6,628.2v-14.1h-41.2v11.7c0,0.7,0.2,1.2,0.7,1.7s1,0.7,1.7,0.7H260.6L260.6,628.2z M375.3,576.2H388l-24,63.9h-9.7l-21.5-47.5
	l-20.3,47.5l-0.2-0.1l0.1,0.1h-9.6l-25.1-63.9h12.6l17.3,42.4l18.4-42.4h13.6l19.5,42.4L375.3,576.2z M442.5,576.2
	c4,0,7.3,1.4,10.1,4.2c2.8,2.8,4.2,6.2,4.2,10.1v23.6h-53.1v11.7c0,0.7,0.2,1.2,0.7,1.7s1,0.7,1.7,0.7h50.7v11.9h-50.7
	c-4,0-7.3-1.4-10.1-4.2c-2.8-2.8-4.2-6.2-4.2-10.1v-35.3c0-4,1.4-7.3,4.2-10.1c2.8-2.8,6.2-4.2,10.1-4.2L442.5,576.2L442.5,576.2z
	 M403.7,602.2h41.2v-11.7c0-0.7-0.2-1.2-0.7-1.7s-1-0.7-1.7-0.7h-36.4c-0.7,0-1.2,0.2-1.7,0.7s-0.7,1-0.7,1.7V602.2L403.7,602.2z
	 M532.7,590.6v2.4h-11.9v-2.4c0-0.7-0.2-1.2-0.7-1.7s-1-0.7-1.7-0.7H482c-0.7,0-1.2,0.2-1.7,0.7s-0.7,1-0.7,1.7v9.3
	c0,0.7,0.2,1.2,0.7,1.7s1,0.7,1.7,0.7h36.4c4,0,7.3,1.4,10.1,4.2s4.2,6.2,4.2,10.1v9.3c0,4-1.4,7.3-4.2,10.1
	c-2.8,2.8-6.2,4.2-10.1,4.2H482c-4,0-7.3-1.4-10.1-4.2s-4.2-6.2-4.2-10.1v-2.4h11.9v2.4c0,0.7,0.2,1.2,0.7,1.7s1,0.7,1.7,0.7h36.4
	c0.7,0,1.2-0.2,1.7-0.7s0.7-1,0.7-1.7v-9.3c0-0.7-0.2-1.2-0.7-1.7s-1-0.7-1.7-0.7H482c-4,0-7.3-1.4-10.1-4.2
	c-2.8-2.8-4.2-6.2-4.2-10.1v-9.3c0-4,1.4-7.3,4.2-10.1c2.8-2.8,6.2-4.2,10.1-4.2h36.4c4,0,7.3,1.4,10.1,4.2
	C531.3,583.2,532.7,586.6,532.7,590.6z M557.9,576.2h36.4c4,0,7.3,1.4,10.1,4.2c2.8,2.8,4.2,6.2,4.2,10.1v35.3c0,4-1.4,7.3-4.2,10.1
	c-2.8,2.8-6.2,4.2-10.1,4.2h-36.4c-4,0-7.3-1.4-10.1-4.2c-2.8-2.8-4.2-6.2-4.2-10.1v-35.3c0-4,1.4-7.3,4.2-10.1
	C550.6,577.6,554,576.2,557.9,576.2L557.9,576.2z M594.3,588.1h-36.4c-0.7,0-1.2,0.2-1.7,0.7s-0.7,1-0.7,1.7v35.3
	c0,0.7,0.2,1.2,0.7,1.7s1,0.7,1.7,0.7h36.4c0.7,0,1.2-0.2,1.7-0.7s0.7-1,0.7-1.7v-35.3c0-0.7-0.2-1.2-0.7-1.7
	C595.5,588.4,595,588.1,594.3,588.1z M701.8,576.2c4,0,7.3,1.4,10.1,4.2c2.8,2.8,4.2,6.2,4.2,10.1v49.6h-11.8v-49.6
	c0-0.7-0.2-1.2-0.7-1.7s-1.1-0.7-1.8-0.7h-25.2c-0.7,0-1.2,0.2-1.7,0.7s-0.7,1-0.7,1.7v49.6h-11.9v-49.6c0-0.7-0.2-1.2-0.7-1.7
	s-1-0.7-1.7-0.7h-25.3c-0.7,0-1.2,0.2-1.7,0.7s-0.7,1-0.7,1.7v49.6h-11.9v-63.9H701.8z M778.3,576.2c4,0,7.3,1.4,10.1,4.2
	c2.8,2.8,4.2,6.2,4.2,10.1v23.6h-53.1v11.7c0,0.7,0.2,1.2,0.7,1.7s1,0.7,1.7,0.7h50.7v11.9h-50.7c-4,0-7.3-1.4-10.1-4.2
	c-2.8-2.8-4.2-6.2-4.2-10.1v-35.3c0-4,1.4-7.3,4.2-10.1c2.8-2.8,6.2-4.2,10.1-4.2L778.3,576.2L778.3,576.2z M739.5,602.2h41.2v-11.7
	c0-0.7-0.2-1.2-0.7-1.7s-1-0.7-1.7-0.7h-36.4c-0.7,0-1.2,0.2-1.7,0.7s-0.7,1-0.7,1.7L739.5,602.2L739.5,602.2z"/>
<path class="st1" d="M793,381L643,243.5l-21.1,23l125,114.5H254.2l125-114.6l-21.1-23L208.1,381H208v90.6c0,41,39.5,74.4,88,74.4h92
	c48.5,0,88-33.4,88-74.4V412h48v59.6c0,41,39.5,74.4,88,74.4h93c48.5,0,88-33.4,88-74.4V381z"/>
<radialGradient id="SVGID_1_" cx="419.125" cy="367.7007" r="154.5344" gradientTransform="matrix(2.638 0 0 2.5702 -809.0892 -635.2294)" gradientUnits="userSpaceOnUse">
	<stop  offset="0" style="stop-color:#00ACE9"/>
	<stop  offset="0.2218" style="stop-color:#00ACE9"/>
	<stop  offset="0.4198" style="stop-color:#0075BD"/>
	<stop  offset="0.5446" style="stop-color:#6D4297"/>
	<stop  offset="0.6584" style="stop-color:#C71F40"/>
	<stop  offset="0.813" style="stop-color:#EA6004"/>
	<stop  offset="1" style="stop-color:#EB6101"/>
</radialGradient>
<path class="st2" d="M643.4,164.1L516.7,89.6c-5.4-1.3-11.3-2.6-18.5-2.6c-4.5,0-10.4,1.3-15.8,2.6l-126.6,74.5
	c-8.6,4.7-15.8,17-15.8,28.3v143.9c0,11.2,7.3,23.6,15.8,28.3l126.6,74.5c9.9,3.8,24.4,3.8,34.3,0l126.6-74.5
	c8.6-4.7,15.8-17,15.8-28.3V192.4C659.2,181.1,651.9,168.8,643.4,164.1z M582.7,315.7c0,31.8-27.5,58.9-60.7,59.1
	c-34.9-0.1-62.8-27.4-63.3-61.7v-69.4h-29v72c-0.9,9.7,3.1,19.9,10.6,28.3c0.9,1.5,2.5,3.1,5.3,5.1c0.8,1.1,2.7,2.5,5.3,2.6
	c2.5,3.1,5.8,4.7,10.6,5.1c3.6,7.4,9.7,13.2,15.8,18c0,0-0.8,0-2.6,0c-33,0-60.7-27.1-60.7-59.1v-87.4h60.7v87.4
	c-0.5,15.4,8.8,30.8,23.7,38.6c15-7.8,24.3-23.1,23.7-38.6v-87.4h60.7V315.7z M585.3,187.2H413.9v-18h171.5V187.2z"/>
<path class="st1" d="M746.9,381H254.2 M208.1,381H208v90.6c0,41,39.5,74.4,88,74.4h92c48.5,0,88-33.4,88-74.4V412h48v59.6
	c0,41,39.5,74.4,88,74.4h93c48.5,0,88-33.4,88-74.4V381"/>
<radialGradient id="SVGID_2_" cx="192.4942" cy="746.1738" r="0.3792" gradientTransform="matrix(-206.5254 -237.3365 -243.3843 201.3935 221929.0156 -104234.1875)" gradientUnits="userSpaceOnUse">
	<stop  offset="0" style="stop-color:#00ACE9"/>
	<stop  offset="0.2218" style="stop-color:#00ACE9"/>
	<stop  offset="0.4198" style="stop-color:#0075BD"/>
	<stop  offset="0.5446" style="stop-color:#6D4297"/>
	<stop  offset="0.6584" style="stop-color:#C71F40"/>
	<stop  offset="0.813" style="stop-color:#EA6004"/>
	<stop  offset="1" style="stop-color:#EB6101"/>
</radialGradient>
<path class="st3" d="M536.9,243.8v72c0.6,17.8-7.3,34.4-21.1,46.3c1.8-0.1,3.4,0,5.3,0c1.2,0,2.9-0.1,5.3,0c7.2-1,14.7-3.7,21.1-7.7
	c3.8-2.7,7.2-5.7,10.6-10.3c2.5-2.2,5-6.1,7.9-10.3c1.3-5.4,2.6-11.5,2.6-18v-72H536.9z"/>
</svg>
